# xmcd
#
# Track frame offsets:
#	150
#	11991
#	26901
#	48632
#	63654
#	74748
#	92640
#	118499
#	129407
#	156777
#	172827
#	184554
#	199060
#	218173
#	233099
#
# Disc length: 3733
#
# Revision: 3
# Processed by: cddbd v1.5.1PL0 Copyright (c) Steve Scherf et al.
# Submitted via: CDex 1.50
# Normalized: r2:TDELIM( - )
#
DISCID=de0e930f
DTITLE=Various Artist - Jazz Notes
DYEAR=1900
DGENRE=Jazz
TTITLE0=Erroll Garner Trio - Saint Louis Blues
TTITLE1=Billie Holiday With Eddie Heywood and His Orchestra - Georgia On My Mind
TTITLE2=Lester Young Trio - The Man I Love
TTITLE3=Thelonious Monk Trio - April In Paris
TTITLE4=Dinah Washington With The Jimmy Cobb's Orchestra - I Cried For You
TTITLE5=Fats Waller and His Rhythm - Ain't Misbehavin'
TTITLE6=Count Basie and His Orchestra - In A Mellotone
TTITLE7=Sonny Rollins With The Modern Jazz Quartet - This Love Of Mine
TTITLE8=Lionel Hampton and His All Star Jazz inner Circle - A Taste Of Honey
TTITLE9=Glenn Miller and His Orchestra - In The Mood
TTITLE10=Sarah Vaughn With George Treadwell and His All Stars - Nice Work If You Can Get It
TTITLE11=Chet Baker With The Gerry Mulligan Quartet - Lullaby Of The Leaves
TTITLE12=Jimmy Smith Trio - Stain Doll
TTITLE13=Frank Sinathra - I've Got A Crush On You
TTITLE14=Barney Wilen Quartet - I Wish You Love
EXTD=
EXTT0=
EXTT1=
EXTT2=
EXTT3=
EXTT4=
EXTT5=
EXTT6=
EXTT7=
EXTT8=
EXTT9=
EXTT10=
EXTT11=
EXTT12=
EXTT13=
EXTT14=
PLAYORDER=
